<?xml version="1.0" encoding="UTF-8"?>
<svg version="1.1" xmlns="http://www.w3.org/2000/svg" width="2835" height="2835">
<path d="M0 0 C13.37856675 12.09951932 26.14865857 24.82322098 38.88680863 37.5885179 C41.48659383 40.19270025 44.08934991 42.79391082 46.69171131 45.3955183 C51.17950138 49.8827889 55.66548512 54.37185847 60.15017879 58.86222363 C66.63396409 65.35420309 73.12057269 71.84335577 79.60783135 78.33186418 C90.13782488 88.86403592 100.66559236 99.39842979 111.19192493 109.93426037 C121.40558346 120.15712508 131.62031201 130.3789187 141.83645618 140.59929943 C142.46821994 141.23132591 143.0999837 141.8633524 143.75089181 142.5145312 C146.92088091 145.68582551 150.09089079 148.85709905 153.26091099 152.02836227 C179.47917428 178.25695979 205.69381024 204.48918019 231.90603626 230.72381115 C235.36546048 229.4031908 237.73209307 228.23194289 240.40603626 225.66131115 C278.97823404 190.89605282 334.21268337 177.49867919 384.90603626 179.72381115 C415.24480716 181.71439593 444.19703072 190.34368829 470.90603626 204.72381115 C472.07263782 205.3374049 473.23923938 205.95099865 474.44119251 206.58318615 C497.57616578 219.20700471 518.83559329 237.93318715 534.90603626 258.72381115 C535.32320911 259.2539381 535.74038196 259.78406506 536.17019641 260.33025646 C548.87864836 276.55601616 558.66563196 294.44918426 565.90603626 313.72381115 C566.18141223 314.44568615 566.45678821 315.16756115 566.74050891 315.91131115 C585.75545467 366.52613964 582.60847739 424.03199645 560.9309386 473.20720959 C552.35051297 492.033916 541.0440987 508.79666283 527.90603626 524.72381115 C529.34717948 528.01434833 531.13010518 530.20540148 533.65372455 532.74832153 C534.43878706 533.54414983 535.22384957 534.33997812 536.03270185 535.15992242 C536.89940928 536.02830749 537.76611672 536.89669256 538.65908802 537.79139233 C539.57662404 538.71839842 540.49416007 539.64540452 541.43950021 540.60050172 C543.98786412 543.17471171 546.54250915 545.74260755 549.09829271 548.30944836 C551.85313562 551.07826857 554.60231932 553.85269919 557.35241687 556.62623119 C563.99471948 563.32230512 570.6469979 570.00842418 577.30130208 576.69256881 C579.18036445 578.58013925 581.059202 580.46793318 582.937971 582.35579562 C594.60369796 594.07771827 606.27315564 605.79591607 617.95240009 617.50437164 C620.65672088 620.21557165 623.36099889 622.92681432 626.06521595 625.63811779 C626.73734078 626.31199703 627.40946561 626.98587628 628.10195786 627.6801761 C638.99624638 638.60414338 649.86800208 649.55025699 660.73080152 660.50552819 C671.88170515 671.75057434 683.05321454 682.97481615 694.24504411 694.17913312 C700.52929496 700.47146548 706.8039952 706.77272819 713.05558765 713.09752369 C718.37807276 718.48224479 723.71879087 723.84799382 729.08442169 729.18973813 C731.82188433 731.91617159 734.54962028 734.65077498 737.2540549 737.41000652 C740.18584013 740.40070138 743.1584693 743.34712367 746.13711536 746.29114819 C746.98597702 747.17068686 747.83483868 748.05022554 748.70942342 748.9564169 C752.98434835 753.26096277 752.98434835 753.26096277 758.58285797 755.01995122 C761.10743179 754.77549486 763.4406008 754.30362113 765.90603626 753.72381115 C767.33843884 753.63020533 768.77343516 753.56555139 770.20877063 753.5468092 C770.90586139 753.53416531 771.60295215 753.52152142 772.32116687 753.50849438 C773.39958347 753.49712696 773.39958347 753.49712696 774.49978626 753.4855299 C775.28100849 753.47573605 776.06223072 753.46594219 776.86712635 753.45585155 C802.91377525 753.19676835 827.02111059 755.46186978 851.90603626 763.72381115 C852.62968372 763.96357677 853.35333118 764.2033424 854.09890735 764.45037365 C864.48798926 767.96734721 874.24295535 772.55702095 883.90603626 777.72381115 C884.81482532 778.20720959 884.81482532 778.20720959 885.74197376 778.70037365 C912.18386028 792.90278432 936.76998836 814.05036337 953.90603626 838.72381115 C954.70420105 839.83059084 955.50237852 840.9373614 956.30056751 842.04412365 C987.49811093 886.18716669 999.27438979 942.57819051 990.44949329 995.71160412 C983.7339547 1032.93366839 968.2749783 1068.33162731 942.90603626 1096.72381115 C942.4608263 1097.22783459 942.01561634 1097.73185802 941.55691516 1098.2511549 C904.88092846 1139.62791907 853.77153025 1164.80693063 798.50369251 1168.56756115 C794.21927571 1168.75363788 789.94417004 1168.83049883 785.65603626 1168.84881115 C784.942943 1168.853484 784.22984973 1168.85815685 783.49514759 1168.86297131 C782.3914281 1168.85982922 782.3914281 1168.85982922 781.26541126 1168.85662365 C780.487643 1168.87213237 779.70987474 1168.88764109 778.90853775 1168.90361977 C775.90603626 1168.72381115 775.90603626 1168.72381115 772.47402275 1167.75381851 C766.65077422 1166.31725516 761.611866 1166.10319434 756.32899535 1169.26729178 C749.4709323 1174.55559279 743.49183491 1180.83611415 737.48803306 1187.05263317 C734.71059314 1189.90821444 731.8808835 1192.71118232 729.05735767 1195.52106762 C724.17955156 1200.38946035 719.33564236 1205.28957176 714.51356304 1210.21314335 C707.54189844 1217.33144644 700.52071935 1224.39918779 693.48668689 1231.45580334 C682.07457728 1242.90725427 670.70319641 1254.39827433 659.35696399 1265.91497326 C648.33876399 1277.09853739 637.30171034 1288.26293226 626.23879993 1299.40227795 C625.55625725 1300.08954965 624.87371456 1300.77682136 624.17048877 1301.48491948 C620.74606426 1304.93283562 617.32126608 1308.38038031 613.89628196 1311.82774055 C585.50804221 1340.40241266 557.18566785 1369.04167401 528.90603626 1397.72381115 C529.30558017 1398.25563 529.70512409 1398.78744884 530.11677539 1399.33538342 C530.64753177 1400.04235363 531.17828815 1400.74932384 531.72512805 1401.4777174 C532.24842197 1402.17453625 532.77171588 1402.87135509 533.31086719 1403.58928967 C541.71783727 1414.83879207 549.46129702 1426.23151184 555.90603626 1438.72381115 C556.47233753 1439.81750011 556.47233753 1439.81750011 557.05007923 1440.93328381 C582.26208433 1490.26847367 585.48650379 1548.10249873 568.65994251 1600.6495924 C554.56262608 1642.55152946 527.07201313 1679.33125198 490.90603626 1704.72381115 C490.32321887 1705.13534435 489.74040149 1705.54687756 489.13992298 1705.97088146 C445.3906348 1736.44619441 388.60231413 1748.97234157 335.98416126 1739.7589674 C298.2318189 1732.33964485 265.94723028 1716.46006321 235.90603626 1692.72381115 C232.57310037 1694.17538064 230.38837482 1695.99498227 227.82972133 1698.56241035 C227.02224315 1699.36775654 226.21476496 1700.17310272 225.38281775 1701.00285333 C224.50131878 1701.89222434 223.61981982 1702.78159534 222.71160877 1703.69791698 C221.76161279 1704.64918901 220.81117177 1705.60001676 219.86032414 1706.55043751 C217.24672516 1709.16538776 214.63940447 1711.78652125 212.03302681 1714.40866649 C209.22119578 1717.23528986 206.40355425 1720.05611013 203.58654773 1722.87757397 C198.70315119 1727.77016246 193.82326856 1732.66623309 188.94557559 1737.56450748 C181.87951212 1744.66010931 174.80649699 1751.74874961 167.73147623 1758.83541895 C156.23508994 1770.35083052 144.74207318 1781.86959801 133.25222766 1793.39153576 C132.56433939 1794.08134197 131.87645111 1794.77114818 131.16771774 1795.48185761 C123.50447796 1803.16661375 115.84205918 1810.8521877 108.18057239 1818.53869152 C105.40824236 1821.32005205 102.63590546 1824.10140574 99.86355579 1826.8827467 C99.17953935 1827.56898479 98.49552292 1828.25522288 97.79077871 1828.96225607 C86.35804976 1840.43179236 74.91943154 1851.8954357 63.47623944 1863.35453278 C56.42570726 1870.41536592 49.38023167 1877.48117069 42.34131055 1884.55357928 C37.50779611 1889.40934311 32.66881086 1894.25961041 27.82561119 1899.10571396 C25.03725418 1901.89610638 22.25135627 1904.68883744 19.47217548 1907.48837185 C8.78699286 1918.24875032 -1.76543145 1928.82393934 -14.09396374 1937.72381115 C-15.29479534 1938.61802695 -16.49407319 1939.51433272 -17.6918546 1940.41263008 C-66.47608393 1976.9056562 -129.55147881 1990.66766099 -189.45822155 1982.2511549 C-224.11596598 1976.71248015 -258.47184773 1964.37726986 -287.09396374 1943.72381115 C-288.54802624 1942.67967052 -288.54802624 1942.67967052 -290.03146374 1941.61443615 C-303.1071904 1932.01194939 -314.83662767 1921.27713391 -326.26607716 1909.80617332 C-327.65375855 1908.4208867 -329.04187639 1907.03603719 -330.43038619 1905.6515809 C-334.22844614 1901.86209708 -338.02031099 1898.06646796 -341.81114944 1894.26976193 C-345.94260859 1890.13411795 -350.07986807 1886.00428314 -354.21637487 1881.873689 C-361.93508366 1874.1643055 -369.64928072 1866.45042568 -377.36139875 1858.73444954 C-384.64835722 1851.44394411 -391.9376842 1844.15581533 -399.2291013 1836.8697691 C-399.72059127 1836.37863795 -400.21208124 1835.88750681 -400.71846485 1835.3814929 C-402.72040773 1833.38102501 -404.72236531 1831.38057184 -406.72434171 1829.3801375 C-427.02237763 1809.09771801 -447.31395199 1788.80884324 -467.60294489 1768.51737826 C-470.40416007 1765.71582462 -473.20538343 1762.91427916 -476.00661528 1760.11274219 C-476.84125004 1759.27801586 -476.84125004 1759.27801586 -477.69274611 1758.42642637 C-490.03428796 1746.0836116 -502.37776797 1733.74273586 -514.721636 1721.40224753 C-517.54175915 1718.58289512 -520.3618693 1715.76352971 -523.18198185 1712.94416669 C-524.31383908 1711.81261116 -525.44569639 1710.68105573 -526.57755381 1709.54950039 C-527.13860219 1708.98860168 -527.69965057 1708.42770298 -528.27770042 1707.84980735 C-529.41256461 1706.71524669 -530.54742938 1705.5806866 -531.68229472 1704.44612709 C-563.8746699 1672.26242249 -596.06503343 1640.07670701 -628.25094044 1607.88653374 C-628.84667362 1607.29072251 -629.44240679 1606.69491127 -630.05619249 1606.08104516 C-636.69898213 1599.43738275 -643.34174352 1592.79369209 -649.98449524 1586.14999177 C-650.58421807 1585.55018343 -651.1839409 1584.95037509 -651.80183715 1584.33239074 C-656.78455981 1579.34895735 -656.78455981 1579.34895735 -659.0777965 1577.05538916 C-697.44251782 1538.68513142 -735.81377418 1500.32142074 -774.19064343 1461.9633131 C-783.86210868 1452.29657018 -793.53355305 1442.62980637 -803.20487416 1432.96291924 C-803.80039961 1432.3676671 -804.39592507 1431.77241497 -805.00949675 1431.15912489 C-823.36678772 1412.81020647 -841.72223118 1394.45944154 -860.07575047 1376.10675049 C-860.65204749 1375.53047984 -861.22834451 1374.95420918 -861.82210507 1374.36047578 C-874.47364643 1361.70947523 -887.12473108 1349.05801805 -899.77539803 1336.40614311 C-904.30204755 1331.87906797 -908.82872732 1327.35202308 -913.35542031 1322.8249914 C-914.48150967 1321.69881673 -915.60759721 1320.57264025 -916.73368294 1319.44646194 C-934.66640737 1301.51228958 -952.6034116 1283.58240521 -970.54252503 1265.65462381 C-989.11353454 1247.09526958 -1007.67898543 1228.53037132 -1026.23814167 1209.95916375 C-1028.23261477 1207.96343886 -1030.22711202 1205.96773811 -1032.22162831 1203.97205639 C-1032.71110315 1203.48229125 -1033.20057799 1202.99252612 -1033.70488541 1202.48791961 C-1040.97155008 1195.21719938 -1048.24237743 1187.95066069 -1055.51570332 1180.6866045 C-1063.61180641 1172.60076286 -1071.7029608 1164.51001268 -1079.78740514 1156.41251353 C-1083.85668318 1152.33697019 -1087.92827191 1148.26381266 -1092.00652917 1144.19725283 C-1095.72152856 1140.49281098 -1099.42947085 1136.78145063 -1103.13206579 1133.06461168 C-1104.45956216 1131.73440209 -1105.78953702 1130.40665975 -1107.12237862 1129.081806 C-1115.48166583 1120.76917975 -1123.0366215 1112.16790346 -1130.09396374 1102.72381115 C-1130.55032921 1102.11691483 -1131.00669468 1101.51001851 -1131.4768894 1100.88473139 C-1167.09404164 1053.5045744 -1182.248474 991.02001009 -1174.49630749 932.46502209 C-1167.72507557 886.33189585 -1149.23902632 841.45375765 -1116.69161999 807.4620924 C-1114.80187163 805.47004187 -1113.02842542 803.47611181 -1111.25710684 801.38603026 C-1105.76668525 795.10155588 -1099.78940454 789.28195608 -1093.88601792 783.39002419 C-1092.52936927 782.03233159 -1091.17293964 780.67442012 -1089.81670853 779.31631044 C-1086.08533385 775.58104052 -1082.35085211 771.84889059 -1078.61585923 768.11723908 C-1074.55445999 764.05837505 -1070.49595826 759.99661549 -1066.43708712 755.93522364 C-1059.32166076 748.81618319 -1052.20437253 741.69900841 -1045.08586514 734.58304882 C-1037.4489618 726.94887141 -1029.81312033 719.31363446 -1022.17861378 711.67706013 C-1021.69614363 711.19446081 -1021.21367349 710.71186149 -1020.71658303 710.21463795 C-1018.75151324 708.24903487 -1016.78645116 706.28342408 -1014.82139887 704.31780351 C-996.52416901 686.01528587 -978.22447648 667.7152324 -959.92320454 649.41675663 C-959.38104063 648.87467551 -958.83887671 648.33259439 -958.28028359 647.77408657 C-957.73725176 647.23113768 -957.19421994 646.68818878 -956.6347326 646.12878689 C-940.09328373 629.58986084 -923.55277061 613.04999964 -907.01318181 596.50921345 C-905.90576331 595.40171747 -904.79834465 594.29422165 -903.69092582 593.186726 C-899.24070795 588.73619766 -894.79049418 584.28566522 -890.34028639 579.8351268 C-877.89998669 567.39391007 -865.45951377 554.95286656 -853.01890481 542.51195908 C-852.45238146 541.94542208 -851.88585811 541.37888509 -851.30216739 540.79518031 C-833.24933477 522.74193839 -815.1957341 504.68946474 -797.14161026 486.63751411 C-796.55601156 486.05198566 -795.97041286 485.46645721 -795.36706874 484.86318547 C-785.8572272 475.35448888 -776.3473484 465.84582955 -766.83746646 456.33717336 C-729.11979878 418.62436204 -691.40467286 380.90901072 -653.69186413 343.19134045 C-644.18801153 333.68626666 -634.68415386 324.18119794 -625.18026078 314.67616463 C-624.59507748 314.09091088 -624.00989418 313.50565713 -623.40697805 312.90266842 C-605.37389597 294.86743028 -587.34019315 276.83281304 -569.30581582 258.79887009 C-568.73969448 258.23276234 -568.17357314 257.66665458 -567.59029662 257.08339205 C-555.16322113 244.65662904 -542.73598507 232.23002661 -530.30860421 219.80356898 C-525.86203692 215.35733084 -521.41547767 210.91108466 -516.96892071 206.46483619 C-515.86272531 205.35871819 -514.75652925 204.25260085 -513.65033251 203.14648419 C-497.11379598 186.61114143 -480.57836517 170.07469365 -464.04368832 153.5374913 C-463.5016072 152.99532739 -462.95952608 152.45316347 -462.40101826 151.89457035 C-461.85993646 151.35340586 -461.31885465 150.81224137 -460.76137643 150.25467796 C-442.51585387 132.00639781 -424.26844705 113.7600037 -406.01890773 95.51574057 C-404.05950282 93.55688801 -402.10010573 91.59802762 -400.14071476 89.63916111 C-399.65984378 89.15842034 -399.1789728 88.67767956 -398.68352997 88.18237089 C-390.60421753 80.1051513 -382.5268805 72.02595899 -374.45006049 63.94624715 C-367.42749756 56.92144681 -360.40312684 49.89845767 -353.37726516 42.87695659 C-349.3707481 38.8728247 -345.36503101 34.86790128 -341.36149908 30.86078452 C-337.72007327 27.2161313 -334.07635899 23.57378245 -330.43079874 19.93326484 C-329.11995467 18.62342869 -327.80994833 17.31275351 -326.50088125 16.00114142 C-320.21089409 9.69979332 -313.93981511 3.42992451 -307.09396374 -2.27618885 C-306.47661081 -2.79386711 -305.85925788 -3.31154538 -305.22319729 -3.84491086 C-230.64023976 -66.05642482 -121.69738243 -76.60197905 0 0 Z " fill="#FBBE16" transform="translate(1575.0939637422562,454.27618885040283)"/>
<path d="M0 0 C39.6 0 79.2 0 120 0 C120.99 7.59 121.98 15.18 123 23 C124.20892908 28.44018084 125.45134247 33.67128591 127 39 C127.18288574 39.64453125 127.36577148 40.2890625 127.55419922 40.953125 C135.95005103 70.34222212 150.03576242 96.88026431 170 120 C170.4758252 120.55171875 170.95165039 121.1034375 171.44189453 121.671875 C187.91846205 140.5891987 206.98742027 155.08908357 229 167 C229.6909375 167.37640625 230.381875 167.7528125 231.09375 168.140625 C256.74856935 181.97017605 285.3743688 189.99861331 314.546875 190.23828125 C316.00652679 190.25038887 316.00652679 190.25038887 317.4956665 190.26274109 C319.54608439 190.27647403 321.59652409 190.28724361 323.64697266 190.29516602 C325.69424395 190.30660239 327.74148744 190.32691903 329.78857422 190.35668945 C350.90511053 190.66225615 370.98092528 187.79583113 391 181 C391.6388916 180.78649902 392.2777832 180.57299805 392.93603516 180.35302734 C416.5044425 172.35756309 439.33634032 160.59667457 458 144 C458.81210938 143.29617188 459.62421875 142.59234375 460.4609375 141.8671875 C467.26942645 135.87485811 473.63937362 129.45898658 480 123 C483.31087339 124.44378528 485.47522568 126.2349011 488.00940132 128.7940321 C488.80192932 129.58936169 489.59445732 130.38469128 490.41100132 131.20412177 C491.27577402 132.08222347 492.14054672 132.96032517 493.03152466 133.86503601 C493.95485309 134.79441681 494.87818151 135.72379761 495.82948959 136.68134147 C497.85811839 138.7233344 499.88349102 140.76848561 501.9064579 142.81608772 C505.19792236 146.14758129 508.49632737 149.47214788 511.79566956 152.7958374 C515.96421254 156.99614211 520.13090419 161.19826916 524.29546587 165.40252135 C532.47820255 173.66308268 540.67390569 181.91066988 548.8744812 190.15351868 C550.16522299 191.45104053 551.45595888 192.74856825 552.74668896 194.04610175 C554.70283956 196.01253135 556.65900342 197.97894775 558.6152024 199.94532922 C565.99056102 207.35912734 573.36475215 214.77408519 580.73730469 222.19067383 C581.41128913 222.86867469 582.08527357 223.54667555 582.77968179 224.24522189 C593.70420922 235.23590194 604.61209681 246.24296832 615.51484169 257.25525143 C626.70677312 268.55867041 637.91960938 279.84105032 649.15131557 291.10494834 C656.07986055 298.0548131 662.99102752 305.0210938 669.88091438 312.00928853 C674.60317584 316.79591672 679.34528954 321.56225986 684.10358162 326.31307038 C686.84924249 329.05565058 689.585095 331.80645408 692.29755974 334.58190346 C695.23797296 337.59014824 698.21928778 340.55421232 701.20657349 343.51591492 C702.48365604 344.84310571 702.48365604 344.84310571 703.78653824 346.19710845 C708.06649319 350.52407555 708.06649319 350.52407555 713.67831016 352.29927313 C716.20329287 352.05485772 718.53470479 351.58196675 721 351 C722.43239422 350.90626632 723.86739701 350.84159466 725.30273438 350.82299805 C725.99982513 350.81035416 726.69691589 350.79771027 727.41513062 350.78468323 C728.13407501 350.77710495 728.85301941 350.76952667 729.59375 350.76171875 C730.37497223 350.7519249 731.15619446 350.74213104 731.96109009 350.73204041 C758.00773899 350.4729572 782.11507434 352.73805864 807 361 C807.72364746 361.23976563 808.44729492 361.47953125 809.19287109 361.7265625 C819.58195301 365.24353606 829.33691909 369.8332098 839 375 C839.60585937 375.32226562 840.21171875 375.64453125 840.8359375 375.9765625 C867.27782403 390.17897317 891.8639521 411.32655222 909 436 C909.7981648 437.1067797 910.59634226 438.21355025 911.39453125 439.3203125 C942.59207467 483.46335554 954.36835354 539.85437936 945.54345703 592.98779297 C938.82791844 630.20985724 923.36894204 665.60781616 898 694 C897.33218506 694.75603516 897.33218506 694.75603516 896.65087891 695.52734375 C859.9748922 736.90410792 808.86549399 762.08311949 753.59765625 765.84375 C749.31323945 766.02982673 745.03813378 766.10668768 740.75 766.125 C740.03690674 766.12967285 739.32381348 766.1343457 738.58911133 766.13916016 C737.48539185 766.13601807 737.48539185 766.13601807 736.359375 766.1328125 C735.58160674 766.14832122 734.80383848 766.16382994 734.00250149 766.17980862 C731 766 731 766 727.56798649 765.03000736 C721.74473796 763.59344401 716.70582974 763.37938319 711.42295909 766.54348063 C704.56489605 771.83178164 698.58579866 778.112303 692.5819968 784.32882202 C689.80455688 787.18440329 686.97484724 789.98737117 684.15132141 792.79725647 C679.2735153 797.6656492 674.4296061 802.56576061 669.60752678 807.4893322 C662.63586218 814.60763529 655.61468309 821.67537664 648.58065064 828.73199219 C637.16854102 840.18344312 625.79716015 851.67446318 614.45092773 863.19116211 C603.43272774 874.37472624 592.39567408 885.53912111 581.33276367 896.6784668 C580.30894965 897.70937436 580.30894965 897.70937436 579.26445251 898.76110833 C575.840028 902.20902447 572.41522982 905.65656916 568.9902457 909.1039294 C540.60200596 937.67860151 512.2796316 966.31786286 484 995 C480.8569669 993.50306476 478.79364745 992.00187177 476.3828125 989.47265625 C475.7007373 988.76826416 475.01866211 988.06387207 474.31591797 987.33813477 C473.59291504 986.58717529 472.86991211 985.83621582 472.125 985.0625 C464.85513434 977.66622212 457.42126557 971.04233622 449 965 C448.44231934 964.59265625 447.88463867 964.1853125 447.31005859 963.765625 C415.37030954 940.63652571 375.732388 926.02575838 336.109375 925.796875 C335.29087067 925.78981537 334.47236633 925.78275574 333.62905884 925.77548218 C278.4318489 925.40744412 228.34038752 941.07601542 187.171875 979.015625 C185.26138237 980.76118302 183.30995786 982.41857451 181.3125 984.0625 C177.44981998 987.35925248 174.26027285 991.11935135 171 995 C170.26007813 995.84046875 169.52015625 996.6809375 168.7578125 997.546875 C139.02166644 1031.93820047 126.34651298 1071.57440915 120 1116 C80.4 1116 40.8 1116 0 1116 C-0.99 1107.75 -1.98 1099.5 -3 1091 C-15.99419504 1034.18817052 -48.12259875 986.62394672 -97.53613281 955.40014648 C-126.77129045 937.49984037 -157.37796337 929.48293822 -191 925 C-191 870.88 -191 816.76 -191 761 C-180.605 759.515 -180.605 759.515 -170 758 C-116.05614785 749.05830884 -68.10017123 719.27613063 -35.88671875 675.11328125 C-31.51548769 668.97854925 -27.67566808 662.56971869 -24 656 C-23.64953613 655.37738281 -23.29907227 654.75476562 -22.93798828 654.11328125 C-11.62849605 633.88237768 -3.47677884 611.99081217 0 589 C0.10151367 588.35369629 0.20302734 587.70739258 0.30761719 587.04150391 C4.30533973 560.52664066 3.37023993 532.00719693 -3 506 C-3.24508301 504.9473999 -3.24508301 504.9473999 -3.49511719 503.87353516 C-10.00728394 476.01325799 -22.5407447 450.6533987 -40 428 C-40.43070801 427.44086914 -40.86141602 426.88173828 -41.30517578 426.30566406 C-71.57344789 387.65883425 -117.78470422 358.12289634 -166.765625 350.44921875 C-176.80792537 349.2899012 -186.91395583 348.64307768 -197 348 C-197 347.67 -197 347.34 -197 347 C-195.02 347 -193.04 347 -191 347 C-191 295.52 -191 244.04 -191 191 C-182.09 190.01 -182.09 190.01 -173 189 C-169.05778408 188.29910696 -165.20549859 187.57634955 -161.3125 186.6875 C-160.33539062 186.46731201 -159.35828125 186.24712402 -158.3515625 186.02026367 C-111.11199244 175.08792262 -67.43292877 146.34067375 -39 107 C-38.58975586 106.43941895 -38.17951172 105.87883789 -37.75683594 105.30126953 C-25.56775594 88.46528374 -16.47748875 69.70144296 -10 50 C-9.52496178 48.60929908 -9.0497068 47.21867218 -8.57421875 45.828125 C-3.54119509 30.78170831 -1.76469862 15.8822876 0 0 Z " fill="#FBBE16" transform="translate(1620,857)"/>
<path d="M0 0 C101.97 0 203.94 0 309 0 C309 115.17 309 230.34 309 349 C295.635 350.98 295.635 350.98 282 353 C245.44257831 361.99273475 213.0075941 377.36309955 185.171875 403.015625 C183.26138237 404.76118302 181.30995786 406.41857451 179.3125 408.0625 C175.44981998 411.35925248 172.26027285 415.11935135 169 419 C168.26007813 419.84046875 167.52015625 420.6809375 166.7578125 421.546875 C137.02166644 455.93820047 124.34651298 495.57440915 118 540 C78.4 540 38.8 540 -2 540 C-2.99 531.75 -3.98 523.5 -5 515 C-17.99419504 458.18817052 -50.12259875 410.62394672 -99.53613281 379.40014648 C-128.77129045 361.49984037 -159.37796337 353.48293822 -193 349 C-193 294.88 -193 240.76 -193 185 C-182.605 183.515 -182.605 183.515 -172 182 C-118.05614785 173.05830884 -70.10017123 143.27613063 -37.88671875 99.11328125 C-33.51548769 92.97854925 -29.67566808 86.56971869 -26 80 C-25.4743042 79.06607422 -25.4743042 79.06607422 -24.93798828 78.11328125 C-11.13023477 53.41338101 -4.28423699 27.84754043 0 0 Z " fill="#FBBE16" transform="translate(1622,1433)"/>
<path d="M0 0 C9.9 0 19.8 0 30 0 C30 54.12 30 108.24 30 164 C36.93 164.66 43.86 165.32 51 166 C66.20671667 168.57533105 80.96773008 172.54021055 95 179 C96.25006836 179.56895996 96.25006836 179.56895996 97.52539062 180.14941406 C109.58415528 185.6635356 121.1729263 191.30598476 132 199 C132.99644531 199.70511719 133.99289062 200.41023438 135.01953125 201.13671875 C151.12191337 212.89166874 165.73462226 226.24913722 178 242 C178.71671875 242.89976562 179.4334375 243.79953125 180.171875 244.7265625 C198.0625005 267.75598469 210.18330212 294.12317531 217.25 322.3125 C217.4965332 323.27124023 217.74306641 324.22998047 217.99707031 325.21777344 C220.38686354 335.22978406 220.94663638 344.46636379 222 355 C280.41 355.495 280.41 355.495 340 356 C340 365.57 340 375.14 340 385 C301.06 385 262.12 385 222 385 C222 387.31 222 389.62 222 392 C217.22294437 437.75644635 197.12713393 480.34147436 165.44335938 513.48925781 C164.46573162 514.51252583 163.49320776 515.54069027 162.52539062 516.57324219 C130.43889573 550.71443501 84.53650302 572.58982013 38 577 C36.60698532 577.01822339 35.21375302 577.02319639 33.82063293 577.01699829 C32.55982407 577.01138885 31.2990152 577.00577942 30 577 C30.00368717 577.59414577 30.00737434 578.18829155 30.01117325 578.80044174 C30.09950112 593.25567163 30.16569826 607.71087744 30.20724869 622.16631699 C30.22787618 629.156875 30.25600001 636.1472529 30.30175781 643.13769531 C30.34587654 649.88094822 30.36912245 656.62397514 30.37950897 663.36737823 C30.38691302 665.9430664 30.40137091 668.51874406 30.42292023 671.09435272 C30.45185884 674.69561605 30.45595985 678.29610048 30.45410156 681.89746094 C30.46848267 682.9677655 30.48286377 684.03807007 30.49768066 685.14080811 C30.457284 692.35183542 30.457284 692.35183542 28.12225342 695.66156006 C25.5447402 697.28711835 23.97542267 697.5155906 20.9375 697.53125 C19.97585938 697.53640625 19.01421875 697.5415625 18.0234375 697.546875 C17.02570313 697.53140625 16.02796875 697.5159375 15 697.5 C14.00226563 697.51546875 13.00453125 697.5309375 11.9765625 697.546875 C10.53410156 697.53914063 10.53410156 697.53914063 9.0625 697.53125 C7.74958984 697.52448242 7.74958984 697.52448242 6.41015625 697.51757812 C2.9535509 696.77527633 2.0605398 695.92065526 0 693 C-0.59856377 689.30398591 -0.50430398 685.63374408 -0.45410156 681.89746094 C-0.45468567 680.76546265 -0.45526978 679.63346436 -0.45587158 678.46716309 C-0.45308313 674.72258932 -0.42195352 670.97880985 -0.390625 667.234375 C-0.38316536 664.63934769 -0.37747112 662.04431474 -0.37347412 659.44927979 C-0.359758 653.31521684 -0.3282275 647.18148208 -0.28807616 641.04754281 C-0.2433525 634.06334278 -0.22136998 627.07912905 -0.20129442 620.09482145 C-0.15949435 605.72972772 -0.08914607 591.364874 0 577 C-1.26969131 577.00338882 -2.53938263 577.00677765 -3.84754944 577.01026917 C-28.36521101 577.07570716 -53.15702256 568.48248989 -75 558 C-75.75748535 557.63648437 -76.5149707 557.27296875 -77.29541016 556.8984375 C-92.47408884 549.48737682 -106.23465644 540.05267656 -119 529 C-119.81597656 528.29488281 -120.63195313 527.58976562 -121.47265625 526.86328125 C-132.87778841 516.79567647 -142.9759007 506.23636019 -152 494 C-153.17369141 492.40865234 -153.17369141 492.40865234 -154.37109375 490.78515625 C-160.24824179 482.54492615 -165.27158894 473.93919501 -170 465 C-170.58394531 463.91203125 -171.16789062 462.8240625 -171.76953125 461.703125 C-182.18001351 440.93092152 -191.16705047 415.06428814 -191.03271484 391.69189453 C-191.02799164 390.62262726 -191.02326843 389.55335999 -191.0184021 388.45169067 C-191.00929306 387.23810379 -191.00929306 387.23810379 -191 386 C-191.84060313 386.00368717 -192.68120626 386.00737434 -193.54728222 386.01117325 C-213.99474004 386.09948508 -234.44216502 386.16569053 -254.88977337 386.20724869 C-264.77806634 386.22787975 -274.66623206 386.25601076 -284.55444336 386.30175781 C-293.17234739 386.34160891 -301.79015927 386.36742886 -310.40815288 386.37635398 C-314.9719574 386.38157166 -319.53549829 386.39384636 -324.09921837 386.42292023 C-328.39445211 386.45006207 -332.68931351 386.45844752 -336.98462486 386.45243073 C-338.56123884 386.45353152 -340.13786522 386.46149292 -341.71440506 386.4768219 C-343.8676118 386.49673166 -346.01941379 386.49193706 -348.1726532 386.48101807 C-349.37743663 386.48470524 -350.58222006 386.48839241 -351.82351208 386.49219131 C-355.63802883 385.90113853 -357.30348709 384.71637822 -360 382 C-360.61523438 379.48217773 -360.61523438 379.48217773 -360.59375 376.68359375 C-360.59117188 375.67232422 -360.58859375 374.66105469 -360.5859375 373.61914062 C-360.55757812 372.56919922 -360.52921875 371.51925781 -360.5 370.4375 C-360.50257812 369.38369141 -360.50515625 368.32988281 -360.5078125 367.24414062 C-360.41026571 359.60134956 -360.41026571 359.60134956 -358.89017773 357.37327099 C-356.06856905 355.32328739 -353.79792125 355.63140093 -350.3372345 355.63923645 C-349.65680153 355.63667318 -348.97636856 355.6341099 -348.27531642 355.63146895 C-345.99035239 355.62651895 -343.70604595 355.64304326 -341.42114258 355.65942383 C-339.78525305 355.66026984 -338.14936238 355.65979546 -336.51347351 355.65809631 C-332.06741261 355.65723393 -327.62159346 355.67489901 -323.17558885 355.69581819 C-318.53110869 355.71454446 -313.88662329 355.71633223 -309.24211121 355.71989441 C-300.44483126 355.7292268 -291.64766287 355.75385671 -282.8504321 355.78394288 C-272.8360585 355.81744977 -262.82167964 355.83396355 -252.80726397 355.84902918 C-232.20478033 355.88040524 -211.60239719 355.93318891 -191 356 C-191.00344421 355.32353424 -191.00688843 354.64706848 -191.01043701 353.95010376 C-191.01311584 353.05729706 -191.01579468 352.16449036 -191.01855469 351.24462891 C-191.0219989 350.36191315 -191.02544312 349.47919739 -191.0289917 348.56973267 C-190.48651453 300.48626931 -161.17919165 252.41271566 -127.921875 219.765625 C-123.78703294 215.96694896 -119.39531495 212.48989153 -115 209 C-113.53240234 207.80697266 -113.53240234 207.80697266 -112.03515625 206.58984375 C-90.43055714 189.39879452 -65.58553686 177.27398396 -39 170 C-37.83597656 169.68144043 -37.83597656 169.68144043 -36.6484375 169.35644531 C-24.63221784 166.14828214 -12.4676656 164 0 164 C0 109.88 0 55.76 0 0 Z " fill="#030304" transform="translate(1399,1618)"/>
<path d="M0 0 C0.96164062 -0.00515625 1.92328125 -0.0103125 2.9140625 -0.015625 C3.91179687 -0.00015625 4.90953125 0.0153125 5.9375 0.03125 C6.93523437 0.01578125 7.93296875 0.0003125 8.9609375 -0.015625 C9.92257812 -0.01046875 10.88421875 -0.0053125 11.875 0 C13.18791016 0.00676758 13.18791016 0.00676758 14.52734375 0.01367188 C17.76494246 0.70894226 18.85389763 1.99032854 20.9375 4.53125 C21.42969131 6.95999527 21.42969131 6.95999527 21.41851807 9.7197876 C21.42676605 11.29306824 21.42676605 11.29306824 21.43518066 12.89813232 C21.41360901 14.61579803 21.41360901 14.61579803 21.39160156 16.36816406 C21.39218567 17.57819092 21.39276978 18.78821777 21.39337158 20.03491211 C21.39106302 23.34901067 21.37101078 26.66211129 21.34307575 29.97603321 C21.31806223 33.44067759 21.31572016 36.90533541 21.31097412 40.37005615 C21.29854412 46.92908819 21.26572245 53.48785339 21.22557616 60.04676795 C21.18085899 67.51463736 21.15887159 74.98251955 21.13879442 82.45048952 C21.09698963 97.81089753 21.02663741 113.17103935 20.9375 128.53125 C21.96923843 128.59632248 23.00097687 128.66139496 24.0639801 128.72843933 C25.43011008 128.81651409 26.79623425 128.90467903 28.16235352 128.99291992 C28.84089638 129.03547661 29.51943924 129.07803329 30.21854401 129.12187958 C37.61715475 129.60361231 44.70761683 130.94834509 51.9375 132.53125 C52.5989502 132.67433594 53.26040039 132.81742188 53.94189453 132.96484375 C91.9629473 141.35825809 125.09377678 161.86154181 152.9375 188.53125 C154.06285156 189.59472656 154.06285156 189.59472656 155.2109375 190.6796875 C190.27786275 224.63777717 208.17360279 271.89227788 212.9375 319.53125 C271.3475 320.02625 271.3475 320.02625 330.9375 320.53125 C330.9375 330.10125 330.9375 339.67125 330.9375 349.53125 C272.5275 350.02625 272.5275 350.02625 212.9375 350.53125 C211.9475 359.11125 210.9575 367.69125 209.9375 376.53125 C208.46201136 382.67911931 206.91200834 388.56121905 204.9375 394.53125 C204.69547852 395.30033691 204.45345703 396.06942383 204.20410156 396.86181641 C194.27461851 428.36907568 177.7275947 455.7339877 154.9375 479.53125 C154.46586426 480.03011719 153.99422852 480.52898437 153.50830078 481.04296875 C145.91830569 489.04163612 137.78291289 495.95802818 128.9375 502.53125 C127.69419922 503.46710938 127.69419922 503.46710938 126.42578125 504.421875 C112.64177262 514.43809859 97.60531113 521.95782545 81.9375 528.53125 C80.72392822 529.04498169 80.72392822 529.04498169 79.48583984 529.5690918 C73.57031372 532.01291525 67.61618606 533.93297436 61.4375 535.59375 C60.48770264 535.84979004 59.53790527 536.10583008 58.55932617 536.36962891 C52.49551714 537.96118249 46.42888546 539.34375383 40.25 540.40625 C39.2290625 540.58619507 39.2290625 540.58619507 38.1875 540.76977539 C32.28057005 541.69810965 27.10914138 541.53125 20.9375 541.53125 C20.9375 593.01125 20.9375 644.49125 20.9375 697.53125 C11.0375 697.86125 1.1375 698.19125 -9.0625 698.53125 C-9.0625 646.72125 -9.0625 594.91125 -9.0625 541.53125 C-12.0325 541.53125 -15.0025 541.53125 -18.0625 541.53125 C-63.65055152 538.27747998 -106.58458005 514.54899099 -139.0625 483.53125 C-140.45082031 482.22220703 -140.45082031 482.22220703 -141.8671875 480.88671875 C-149.01902971 473.96786857 -155.12296174 466.49612937 -161.0625 458.53125 C-161.68769531 457.70109375 -162.31289062 456.8709375 -162.95703125 456.015625 C-180.68636616 431.6014589 -191.80878529 403.88753064 -198.0625 374.53125 C-198.31 373.438125 -198.5575 372.345 -198.8125 371.21875 C-199.8357063 366.33009766 -200.14018187 361.71743953 -200.10546875 356.71875 C-200.09926514 355.55730469 -200.09306152 354.39585937 -200.08666992 353.19921875 C-200.07869385 352.31878906 -200.07071777 351.43835938 -200.0625 350.53125 C-200.87733447 350.53493717 -201.69216894 350.53862434 -202.53169537 350.54242325 C-222.35326185 350.63073897 -242.17479445 350.69694242 -261.99651623 350.73849869 C-271.58214061 350.75912887 -281.16763371 350.78725817 -290.75317383 350.83300781 C-299.10738932 350.87286163 -307.46150974 350.8986795 -315.81581765 350.90760398 C-320.23989748 350.9128212 -324.66370529 350.92509295 -329.08769798 350.95417023 C-333.25161069 350.98131641 -337.41513929 350.98969667 -341.57913208 350.98368073 C-343.10736999 350.98478133 -344.63562072 350.99274021 -346.16378212 351.0080719 C-348.25131703 351.02798865 -350.33740379 351.02318476 -352.42497253 351.01226807 C-353.59288424 351.01595524 -354.76079596 351.01964241 -355.96409893 351.02344131 C-359.72361678 350.4262294 -361.39221756 349.19771546 -364.0625 346.53125 C-364.67773438 344.12109375 -364.67773438 344.12109375 -364.65625 341.46875 C-364.65367188 340.50710938 -364.65109375 339.54546875 -364.6484375 338.5546875 C-364.62007812 337.55695313 -364.59171875 336.55921875 -364.5625 335.53125 C-364.56507812 334.53351563 -364.56765625 333.53578125 -364.5703125 332.5078125 C-364.45527532 323.92603905 -364.45527532 323.92603905 -361.0625 320.53125 C-358.17895985 320.03905869 -358.17895985 320.03905869 -354.58955383 320.05023193 C-353.92953863 320.04681423 -353.26952342 320.04339653 -352.58950776 320.03987527 C-350.37344176 320.03327592 -348.1585817 320.05530407 -345.94262695 320.07714844 C-344.35599801 320.07827648 -342.76936698 320.0776439 -341.18273926 320.07537842 C-336.8708888 320.07422865 -332.55948157 320.09778014 -328.24773431 320.12567425 C-323.74340057 320.15064434 -319.23905718 320.15302643 -314.73466492 320.15777588 C-306.20296008 320.1702186 -297.67145976 320.20305769 -289.13984507 320.24317384 C-279.42777634 320.28785127 -269.71569795 320.30986844 -260.00355208 320.32995558 C-240.02308715 320.37178923 -220.04280645 320.44216643 -200.0625 320.53125 C-200.06963768 319.53069077 -200.06963768 319.53069077 -200.07691956 318.50991821 C-200.08062057 317.62444305 -200.08432159 316.7389679 -200.08813477 315.82666016 C-200.09527245 314.51672592 -200.09527245 314.51672592 -200.10255432 313.18032837 C-199.39508377 266.39024767 -172.42991097 221.47689549 -141.0625 188.53125 C-140.14210938 187.54898438 -140.14210938 187.54898438 -139.203125 186.546875 C-134.233523 181.38795482 -128.66166668 176.9828068 -123.0625 172.53125 C-122.09570312 171.73589844 -121.12890625 170.94054687 -120.1328125 170.12109375 C-97.80196493 152.19391205 -70.36875655 139.44701622 -42.484375 133.328125 C-39.22328641 132.70859983 -39.22328641 132.70859983 -37.0625 131.53125 C-35.38493356 131.24243952 -33.69960043 130.99801564 -32.01171875 130.77734375 C-31.00302734 130.64521484 -29.99433594 130.51308594 -28.95507812 130.37695312 C-27.89740234 130.24224609 -26.83972656 130.10753906 -25.75 129.96875 C-24.18088867 129.76088867 -24.18088867 129.76088867 -22.58007812 129.54882812 C-18.0300455 128.96088629 -13.65318202 128.49935464 -9.0625 128.53125 C-9.06618717 127.89587437 -9.06987434 127.26049873 -9.07367325 126.60586929 C-9.16199225 111.14918739 -9.22819385 95.69259319 -9.26974869 80.23572159 C-9.29037821 72.76089672 -9.31850601 65.28624023 -9.36425781 57.81152344 C-9.40411394 51.2969113 -9.42992999 44.78242109 -9.43885398 38.26769042 C-9.4440709 34.81779496 -9.45633994 31.36824836 -9.48542023 27.91846466 C-9.51761264 24.06829771 -9.51846019 20.21847274 -9.51660156 16.36816406 C-9.53098267 15.22305359 -9.54536377 14.07794312 -9.56018066 12.89813232 C-9.55468201 11.84927856 -9.54918335 10.8004248 -9.54351807 9.7197876 C-9.54720524 8.80905613 -9.55089241 7.89832466 -9.55469131 6.95999527 C-8.49125707 1.71242016 -5.00185477 0.02578276 0 0 Z " fill="#030304" transform="translate(1408.0625,506.46875)"/>
<path d="M0 0 C1.36801758 -0.00773437 1.36801758 -0.00773437 2.76367188 -0.015625 C3.70919922 -0.00015625 4.65472656 0.0153125 5.62890625 0.03125 C6.57056641 0.01578125 7.51222656 0.0003125 8.48242188 -0.015625 C9.39572266 -0.01046875 10.30902344 -0.0053125 11.25 0 C12.07814209 0.00451172 12.90628418 0.00902344 13.75952148 0.01367188 C17.13451848 0.73197261 18.73991585 2.12235619 21.19140625 4.53125 C21.80664539 7.30357742 21.80664539 7.30357742 21.79267883 10.55499268 C21.80298882 12.4059404 21.80298882 12.4059404 21.81350708 14.29428101 C21.79581255 15.65875853 21.77763852 17.0232299 21.7590332 18.38769531 C21.75762261 19.82669017 21.75841494 21.26568863 21.76124573 22.7046814 C21.76268088 26.60959389 21.73327597 30.51373914 21.69837594 34.41847324 C21.66712852 38.4997068 21.66418299 42.58095776 21.6582489 46.66229248 C21.64270564 54.39009306 21.60167087 62.11754015 21.55150145 69.84518504 C21.49562282 78.64312572 21.46812525 87.44108325 21.44302428 96.2391572 C21.39075527 114.33672191 21.30280381 132.43395754 21.19140625 150.53125 C21.81176695 150.52879147 22.43212765 150.52633293 23.07128716 150.5237999 C23.88378992 150.5218877 24.69629269 150.51997551 25.53341675 150.51800537 C26.33940245 150.51554684 27.14538815 150.5130883 27.97579765 150.51055527 C30.25760187 150.5318683 32.44383024 150.70091898 34.69921875 151.046875 C35.82505371 151.2183606 35.82505371 151.2183606 36.97363281 151.39331055 C37.74674805 151.52133057 38.51986328 151.64935059 39.31640625 151.78125 C40.14624023 151.91764893 40.97607422 152.05404785 41.83105469 152.19458008 C75.39532214 157.93379882 107.6648418 172.17882312 134.19140625 193.53125 C135.7228125 194.75714844 135.7228125 194.75714844 137.28515625 196.0078125 C150.8296444 207.05394339 162.88679676 219.41377065 173.19140625 233.53125 C173.97 234.58828125 174.74859375 235.6453125 175.55078125 236.734375 C190.61171173 257.81967767 201.42897045 281.48883474 207.94140625 306.53125 C208.14016357 307.27673096 208.3389209 308.02221191 208.54370117 308.7902832 C210.58652199 317.05175529 211.17369929 324.88074087 212.19140625 333.53125 C252.12140625 333.53125 292.05140625 333.53125 333.19140625 333.53125 C333.52140625 343.43125 333.85140625 353.33125 334.19140625 363.53125 C294.26140625 363.53125 254.33140625 363.53125 213.19140625 363.53125 C212.86140625 370.46125 212.53140625 377.39125 212.19140625 384.53125 C211.70315044 388.3918217 211.20348357 392.05631981 210.44140625 395.84375 C210.26730225 396.75125 210.09319824 397.65875 209.91381836 398.59375 C208.27211911 406.79429437 205.93716055 414.64144367 203.19140625 422.53125 C202.835625 423.63855469 202.47984375 424.74585938 202.11328125 425.88671875 C189.78274085 462.92175735 165.08254773 496.74997442 134.19140625 520.53125 C133.64677734 520.95760742 133.10214844 521.38396484 132.54101562 521.82324219 C103.78014595 544.24122646 66.05385457 561.09359367 29.35546875 563.078125 C28.17561401 563.14459229 28.17561401 563.14459229 26.97192383 563.21240234 C25.04519471 563.32066199 23.11831458 563.4262283 21.19140625 563.53125 C21.19417163 564.27485401 21.19693701 565.01845802 21.19978619 565.78459549 C21.26601126 583.87002607 21.31566988 601.95543248 21.34684277 620.0409584 C21.36231805 628.78695274 21.38342018 637.53286618 21.41772461 646.27880859 C21.44760675 653.90091211 21.46697644 661.52295706 21.47367173 669.14511752 C21.47758602 673.18179242 21.48679876 677.21829972 21.50859642 681.25492096 C21.52894292 685.05354646 21.53524382 688.85193516 21.53072929 692.65060997 C21.53155532 694.04541752 21.53753207 695.4402329 21.54902267 696.83499336 C21.56393611 698.73842784 21.55857504 700.64198907 21.5521698 702.54547119 C21.55493518 703.61106388 21.55770056 704.67665657 21.56054974 705.77453995 C21.14017445 708.91384166 20.39949554 710.28966432 18.19140625 712.53125 C15.6953125 713.04882812 15.6953125 713.04882812 12.75390625 713.0625 C11.16449219 713.07023437 11.16449219 713.07023437 9.54296875 713.078125 C8.43695312 713.06265625 7.3309375 713.0471875 6.19140625 713.03125 C5.08539062 713.04671875 3.979375 713.0621875 2.83984375 713.078125 C1.78023437 713.07296875 0.720625 713.0678125 -0.37109375 713.0625 C-1.34175781 713.05798828 -2.31242187 713.05347656 -3.3125 713.04882812 C-5.80859375 712.53125 -5.80859375 712.53125 -7.44205189 710.87301254 C-9.17434375 707.9044857 -9.17825675 705.97472424 -9.1693573 702.54547119 C-9.17554329 700.7071447 -9.17554329 700.7071447 -9.18185425 698.8316803 C-9.17123758 697.47665185 -9.16033316 696.12162562 -9.14916992 694.76660156 C-9.14832356 693.33745847 -9.14879897 691.90831408 -9.15049744 690.47917175 C-9.15135846 686.60131884 -9.13371553 682.7237441 -9.11277556 678.84595585 C-9.09402654 674.79272432 -9.09225973 670.73948647 -9.08869934 666.68621826 C-9.07937365 659.01164983 -9.0547528 651.33720955 -9.02465087 643.66269755 C-8.99112315 634.92518332 -8.97462495 626.18766297 -8.95956457 617.45010042 C-8.92820368 599.47707762 -8.87543302 581.50417411 -8.80859375 563.53125 C-10.54577667 563.4394194 -10.54577667 563.4394194 -12.3180542 563.34573364 C-13.85755279 563.26075989 -15.39704206 563.17561706 -16.93652344 563.09033203 C-18.07793289 563.03067009 -18.07793289 563.03067009 -19.24240112 562.96980286 C-25.31629198 562.62809282 -31.12912304 561.78725803 -37.05859375 560.40625 C-38.0225708 560.18743164 -38.98654785 559.96861328 -39.97973633 559.74316406 C-70.23722767 552.61561322 -98.83356913 539.45458685 -122.80859375 519.53125 C-123.37239746 519.06750977 -123.93620117 518.60376953 -124.51708984 518.12597656 C-152.5425911 495.00435883 -172.8423893 467.03634689 -186.80859375 433.53125 C-187.10781738 432.81549805 -187.40704102 432.09974609 -187.71533203 431.36230469 C-193.54508859 417.20288443 -196.53906603 402.7857043 -199.05859375 387.71875 C-199.23406738 386.69338135 -199.40954102 385.6680127 -199.59033203 384.61157227 C-199.82985596 383.10808228 -199.82985596 383.10808228 -200.07421875 381.57421875 C-200.21633789 380.69789795 -200.35845703 379.82157715 -200.50488281 378.91870117 C-200.7943745 375.68984497 -200.8382013 372.55967276 -200.82757568 369.3195343 C-200.82346491 367.69475898 -200.82346491 367.69475898 -200.81927109 366.03715992 C-200.81574757 365.21020965 -200.81222404 364.38325937 -200.80859375 363.53125 C-201.38727833 363.53493717 -201.96596291 363.53862434 -202.56218338 363.54242325 C-216.64188217 363.63075486 -230.72153943 363.69695003 -244.80145645 363.73849869 C-251.61041463 363.75912534 -258.41918787 363.78724754 -265.22802734 363.83300781 C-271.79618673 363.87712951 -278.36420418 363.90037311 -284.93251801 363.91075897 C-287.44122089 363.91816248 -289.949913 363.93261936 -292.45853424 363.95417023 C-295.96640453 363.98311289 -299.47347527 363.98720969 -302.98144531 363.98535156 C-304.02369766 363.99973267 -305.06595001 364.01411377 -306.13978577 364.02893066 C-313.16461468 363.98853831 -313.16461468 363.98853831 -316.45294189 361.65350342 C-318.0999222 359.07517951 -318.32412616 357.5179619 -318.33984375 354.46875 C-318.345 353.50710938 -318.35015625 352.54546875 -318.35546875 351.5546875 C-318.33226562 350.05808594 -318.33226562 350.05808594 -318.30859375 348.53125 C-318.3240625 347.53351563 -318.33953125 346.53578125 -318.35546875 345.5078125 C-318.3503125 344.54617188 -318.34515625 343.58453125 -318.33984375 342.59375 C-318.33533203 341.71847656 -318.33082031 340.84320312 -318.32617188 339.94140625 C-317.58559909 336.49285223 -316.71606004 335.59136655 -313.80859375 333.53125 C-310.17352859 332.93396078 -306.56550264 333.02687962 -302.88964844 333.07714844 C-301.77715729 333.07656433 -300.66466614 333.07598022 -299.51846313 333.07537842 C-295.83881503 333.07816663 -292.15997547 333.10929503 -288.48046875 333.140625 C-285.93028201 333.14808473 -283.38008954 333.15377892 -280.82989502 333.15777588 C-274.80206838 333.17149145 -268.77458917 333.20302118 -262.74690175 333.24317384 C-255.88361912 333.28789927 -249.02032255 333.30988046 -242.15693045 333.32995558 C-228.04065741 333.37175439 -213.92464148 333.44210152 -199.80859375 333.53125 C-199.74950333 332.73306854 -199.6904129 331.93488708 -199.62953186 331.11251831 C-199.54690598 330.05171051 -199.46428009 328.99090271 -199.37915039 327.89794922 C-199.29943497 326.85226776 -199.21971954 325.8065863 -199.1375885 324.72921753 C-198.60981477 319.5990346 -197.47464466 314.65815006 -196.24609375 309.65625 C-195.85019043 308.03940308 -195.85019043 308.03940308 -195.44628906 306.38989258 C-186.20434125 269.94296256 -167.71427226 238.54239742 -141.80859375 211.53125 C-140.91269531 210.5825 -140.01679687 209.63375 -139.09375 208.65625 C-111.72541467 180.36358029 -74.36933105 161.77178718 -36.24609375 153.21875 C-35.22298096 152.97934692 -35.22298096 152.97934692 -34.17919922 152.73510742 C-28.64023298 151.58237611 -23.1166726 151.26948811 -17.48071289 150.98364258 C-16.64586617 150.93938393 -15.81101944 150.89512527 -14.95087433 150.84952545 C-12.9035594 150.74129513 -10.85609071 150.63598026 -8.80859375 150.53125 C-8.81228092 149.78249226 -8.81596809 149.03373451 -8.819767 148.26228714 C-8.90806624 130.0516967 -8.97427809 111.84114893 -9.01584244 93.63039017 C-9.03647641 84.82382779 -9.06461286 76.01740822 -9.11035156 67.2109375 C-9.15019388 59.53609585 -9.17602049 51.86135762 -9.18494773 44.18641543 C-9.19016694 40.12173841 -9.20245099 36.05735725 -9.23151398 31.99277496 C-9.25864214 28.16783681 -9.26704415 24.3433167 -9.26102448 20.51829147 C-9.26212589 19.11379856 -9.27009567 17.70929183 -9.28541565 16.30488205 C-9.30529845 14.38835488 -9.2981524 12.47160395 -9.28961182 10.55499268 C-9.29329899 9.48202564 -9.29698616 8.40905861 -9.30078506 7.30357742 C-8.35908205 1.99932068 -5.147329 0.0280809 0 0 Z " fill="#030304" transform="translate(875.80859375,1069.46875)"/>
<path d="M0 0 C1.27650421 0.00081573 1.27650421 0.00081573 2.57879639 0.00164795 C24.91892487 0.06694705 45.94132197 3.3211442 67.1875 10.375 C67.91114746 10.61476563 68.63479492 10.85453125 69.38037109 11.1015625 C79.76945301 14.61853606 89.52441909 19.2082098 99.1875 24.375 C99.79335937 24.69726562 100.39921875 25.01953125 101.0234375 25.3515625 C127.46532403 39.55397317 152.0514521 60.70155222 169.1875 85.375 C169.9856648 86.4817797 170.78384226 87.58855025 171.58203125 88.6953125 C202.77957467 132.83835554 214.55585354 189.22937936 205.73095703 242.36279297 C199.01541844 279.58485724 183.55644204 314.98281616 158.1875 343.375 C157.74229004 343.87902344 157.29708008 344.38304687 156.83837891 344.90234375 C120.1601718 386.28161291 69.06662949 411.43988858 13.80078125 415.21875 C-36.80521876 417.40711757 -85.52940179 403.42168335 -125.8125 372.375 C-126.37163086 371.94429199 -126.93076172 371.51358398 -127.50683594 371.06982422 C-143.72689196 358.36624486 -158.02553042 343.24357531 -169.8125 326.375 C-170.22790039 325.78299805 -170.64330078 325.19099609 -171.07128906 324.58105469 C-194.54054015 290.68102534 -206.22380919 251.59278166 -206.12817383 210.52270508 C-206.12502306 207.70809787 -206.14854324 204.89455585 -206.17382812 202.08007812 C-206.28419082 170.5417882 -198.74698916 140.1377572 -183.84960938 112.31347656 C-183.16050762 111.02546622 -182.47943673 109.73312564 -181.80664062 108.43652344 C-172.78280568 91.06084126 -160.99167951 75.81795638 -147.29150391 61.88037109 C-146.02914384 60.59550609 -144.78418269 59.29358542 -143.54296875 57.98828125 C-117.28336076 30.76599925 -80.91757621 12.99615152 -44.4375 4.5625 C-43.59550049 4.36760986 -42.75350098 4.17271973 -41.88598633 3.97192383 C-27.92480069 0.92039409 -14.23642395 -0.03442698 0 0 Z " fill="#FEFEFE" transform="translate(2359.8125,1207.625)"/>
<path d="M0 0 C0.87862701 0.00182281 1.75725403 0.00364563 2.6625061 0.00552368 C16.09837296 0.05238216 29.17951479 0.5809421 42.375 3.3125 C43.69636963 3.57788574 43.69636963 3.57788574 45.04443359 3.84863281 C82.64517545 11.58387159 117.06567273 30.24211326 144.7265625 56.73583984 C145.88756264 57.84628695 147.05483037 58.95019953 148.2265625 60.04931641 C164.18051583 75.06176402 176.46800033 91.79680302 186.375 111.3125 C186.76526367 112.06998535 187.15552734 112.8274707 187.55761719 113.60791016 C212.75206261 162.90635716 215.94124341 220.73560761 199.12890625 273.23828125 C185.03158983 315.14021831 157.54097687 351.91994083 121.375 377.3125 C120.79218262 377.7240332 120.20936523 378.13556641 119.60888672 378.55957031 C75.85959855 409.03488326 19.07127787 421.56103042 -33.546875 412.34765625 C-72.31567758 404.72857268 -111.53581704 387.86561842 -139.625 359.3125 C-140.62843668 358.32891849 -141.63373283 357.34723133 -142.640625 356.3671875 C-149.45440061 349.69165634 -155.80731153 342.89281562 -161.625 335.3125 C-162.03927246 334.78527344 -162.45354492 334.25804688 -162.88037109 333.71484375 C-175.57923069 317.50393375 -185.44559726 299.59819481 -192.625 280.3125 C-192.93808105 279.47219238 -193.25116211 278.63188477 -193.57373047 277.76611328 C-198.17952013 265.17978486 -201.49575081 252.54647284 -203.625 239.3125 C-203.8000708 238.28020264 -203.9751416 237.24790527 -204.15551758 236.18432617 C-204.72906102 231.45430775 -204.82451958 226.80339585 -204.86328125 222.04296875 C-204.87312042 221.05742004 -204.88295959 220.07187134 -204.89309692 219.05645752 C-205.18085657 182.74739409 -201.87512192 150.32804471 -185.625 117.3125 C-185.25004395 116.5395459 -184.87508789 115.7665918 -184.48876953 114.97021484 C-176.04622602 97.71592038 -165.32169972 82.67277333 -152.625 68.3125 C-151.8309375 67.39597656 -151.036875 66.47945312 -150.21875 65.53515625 C-145.6607357 60.34495161 -140.91655829 55.73882931 -135.625 51.3125 C-134.68011719 50.47976563 -133.73523437 49.64703125 -132.76171875 48.7890625 C-108.65457649 27.64692963 -79.48976981 13.52180646 -48.625 5.3125 C-47.44421875 4.99539063 -46.2634375 4.67828125 -45.046875 4.3515625 C-30.14473309 0.64437941 -15.27359398 -0.06594894 0 0 Z " fill="#FEFEFE" transform="translate(1944.625,1781.6875)"/>
<path d="M0 0 C1.16660156 0.61359375 2.33320313 1.2271875 3.53515625 1.859375 C26.67012952 14.48319356 47.92955704 33.209376 64 54 C64.41717285 54.53012695 64.8343457 55.06025391 65.26416016 55.60644531 C77.97261211 71.83220501 87.7595957 89.72537312 95 109 C95.27537598 109.721875 95.55075195 110.44375 95.83447266 111.1875 C114.84941841 161.80232849 111.70244113 219.3081853 90.02490234 268.48339844 C80.70238064 288.93837196 67.79356344 311.54926985 50.26171875 326.015625 C47.93959167 328.05300075 45.81097083 330.23025926 43.67260742 332.45776367 C15.65892416 361.46541235 -22.80889973 379.23826815 -62 387 C-62.88751953 387.18908936 -63.77503906 387.37817871 -64.68945312 387.57299805 C-74.89004608 389.47342163 -85.11606204 389.26763156 -95.45703125 389.20581055 C-98.62508183 389.18749953 -101.79283933 389.18530189 -104.9609375 389.18554688 C-107.00781498 389.18063165 -109.05469052 389.17480331 -111.1015625 389.16796875 C-112.03207428 389.16685593 -112.96258606 389.1657431 -113.92129517 389.16459656 C-141.05087759 388.97189369 -169.29292395 381.17110875 -193.03417969 368.07714844 C-195.14599213 366.9200053 -197.27813377 365.80725459 -199.4140625 364.6953125 C-223.87695037 351.7711281 -246.10359101 332.89112449 -263 311 C-263.433125 310.44328613 -263.86625 309.88657227 -264.3125 309.31298828 C-271.50246644 300.01658636 -277.52899125 290.39279402 -283 280 C-283.92425781 278.27330078 -283.92425781 278.27330078 -284.8671875 276.51171875 C-291.34153324 264.03781263 -296.27164793 251.03165094 -300.25 237.5625 C-300.60106812 236.40415649 -300.60106812 236.40415649 -300.95922852 235.22241211 C-305.69458092 218.50191839 -306.54486554 201.72062915 -306.4375 184.4375 C-306.43412628 183.38273468 -306.43075256 182.32796936 -306.42727661 181.24124146 C-306.14753091 120.81559782 -282.12814343 72.20836825 -240.453125 29.3828125 C-177.29363736 -31.96637135 -76.08050073 -40.96172531 0 0 Z " fill="#FEFEFE" transform="translate(2046,659)"/>
<path d="M0 0 C0.99209473 0.04785645 1.98418945 0.09571289 3.00634766 0.14501953 C47.62897987 2.51132017 90.82710558 17.50915695 125 47 C125.74507812 47.63550781 126.49015625 48.27101563 127.2578125 48.92578125 C167.95247215 84.58397312 195.37477971 133.0959133 199.78833008 187.56323242 C200.17814772 193.89248615 200.19760714 200.22317 200.1875 206.5625 C200.18689575 207.26587494 200.1862915 207.96924988 200.18566895 208.69393921 C200.15963065 219.89246935 199.82177169 230.93154669 198 242 C197.8146167 243.13139404 197.8146167 243.13139404 197.62548828 244.28564453 C189.25273576 292.98969224 161.69343621 338.43891919 123 369 C122.04738281 369.78117187 121.09476563 370.56234375 120.11328125 371.3671875 C84.32978314 400.04896703 39.64662192 414.18990652 -5.8894043 414.18530273 C-8.29819488 414.18748703 -10.70652436 414.20570887 -13.11523438 414.22460938 C-22.92952381 414.26055478 -32.29785639 413.61056023 -42 412 C-42.84457764 411.86456787 -43.68915527 411.72913574 -44.55932617 411.58959961 C-82.32702401 405.14186165 -117.54799574 387.32455309 -145.515625 361.296875 C-147.65342273 359.3204205 -149.833984 357.43445344 -152.0625 355.5625 C-170.59715362 339.36827108 -184.79186419 317.22643524 -195 295 C-195.55300781 293.81712402 -195.55300781 293.81712402 -196.1171875 292.61035156 C-218.63094441 244.08867244 -220.62279081 186.43321372 -202.36083984 136.14575195 C-201.58966394 134.09065277 -200.80062651 132.04379548 -200 130 C-199.74524902 129.34612305 -199.49049805 128.69224609 -199.22802734 128.01855469 C-185.29865037 92.89381852 -159.62058268 61.00497228 -129 39 C-128.4529541 38.59797363 -127.9059082 38.19594727 -127.34228516 37.78173828 C-109.1688625 24.5283984 -88.43887956 14.64057632 -67 8 C-66.19353027 7.74782715 -65.38706055 7.4956543 -64.55615234 7.23583984 C-43.9035914 0.97377731 -21.51873667 -1.05600827 0 0 Z " fill="#FEFEFE" transform="translate(1423,1204)"/>
<path d="M0 0 C3.30923253 1.44517244 5.49153568 3.24184244 8.03733444 5.78844547 C8.83602943 6.58254167 9.63472442 7.37663786 10.45762229 8.19479758 C11.76501314 9.50990377 11.76501314 9.50990377 13.09881592 10.85157776 C14.0292 11.77954743 14.95958409 12.7075171 15.91816163 13.66360706 C18.50179926 16.24082503 21.07914837 18.8242532 23.65552115 21.40873086 C26.4344277 24.19420972 29.21908734 26.97392666 32.0030365 29.75436401 C37.4556964 35.2019796 42.90299575 40.65492544 48.34850755 46.10968537 C54.68485369 52.45640635 61.02641434 58.79790622 67.36819294 65.13919818 C78.67845327 76.44895776 89.98387317 87.76354365 101.28662109 99.08081055 C112.26573975 110.07402524 123.24836301 121.06372289 134.23486328 132.04956055 C135.25035893 133.06499627 135.25035893 133.06499627 136.28636965 134.10094584 C136.96217338 134.77670922 137.63797712 135.45247259 138.33425975 136.14871365 C150.82828959 148.64205455 163.31903086 161.13867872 175.80823575 173.63684287 C180.2323304 178.06395969 184.65740662 182.49009398 189.08278656 186.91592598 C194.47010685 192.30392677 199.85554196 197.69380379 205.2385954 203.08606762 C207.98768811 205.8397927 210.73757834 208.59270878 213.48961449 211.34349251 C216.46550153 214.31809085 219.43752059 217.29652289 222.40911865 220.27540588 C223.28963544 221.15437407 224.17015222 222.03334225 225.07735133 222.93894583 C225.86561533 223.73043428 226.65387933 224.52192272 227.46603012 225.33739567 C228.15343395 226.02550392 228.84083778 226.71361218 229.54907203 227.4225722 C231 229 231 229 231 230 C230.29206299 230.1451001 229.58412598 230.2902002 228.85473633 230.43969727 C184.20851044 239.69636974 147.0603497 257.4139632 114 289 C113.27296875 289.67417969 112.5459375 290.34835937 111.796875 291.04296875 C105.46270093 297.08103305 100.26290964 304.03757022 95 311 C94.57428711 311.55429688 94.14857422 312.10859375 93.70996094 312.6796875 C67.3243703 347.17281303 55.24040854 388.61209407 54.375 431.5625 C54.33666182 433.17124138 54.29760209 434.77996574 54.2578125 436.38867188 C54.16360924 440.25897017 54.07898605 444.1293625 54 448 C53.67 448 53.34 448 53 448 C53 439.75 53 431.5 53 423 C-10.36 423 -73.72 423 -139 423 C-139 306.18 -139 189.36 -139 69 C-148.24 69 -157.48 69 -167 69 C-167 68.67 -167 68.34 -167 68 C-165.96931396 67.9906543 -164.93862793 67.98130859 -163.87670898 67.97167969 C-138.04745337 67.69769749 -113.66134611 66.37173276 -89 58 C-88.3611084 57.78649902 -87.7222168 57.57299805 -87.06396484 57.35302734 C-63.4955575 49.35756309 -40.66365968 37.59667457 -22 21 C-20.78183594 19.94425781 -20.78183594 19.94425781 -19.5390625 18.8671875 C-12.73057355 12.87485811 -6.36062638 6.45898658 0 0 Z " fill="#FBBE16" transform="translate(2100,980)"/>
<path d="M0 0 C63.69 0 127.38 0 193 0 C194.65 9.9 196.3 19.8 198 30 C206.69622109 65.39159746 223.8810825 98.37356213 249.50683594 124.47167969 C251.03766285 126.03854961 252.53874464 127.63050004 254.0390625 129.2265625 C284.25994659 160.93340926 329.38214423 183.00341922 373 187 C371.55238141 190.31798484 369.74699772 192.50190129 367.19314384 195.05295181 C366.39494756 195.8551302 365.59675127 196.65730858 364.77436721 197.4837954 C363.89305668 198.35928025 363.01174616 199.2347651 362.10372925 200.13677979 C361.16112134 201.08025977 360.21895303 202.0241791 359.27718747 202.9684999 C356.68662974 205.5635347 354.0898686 208.15228363 351.4920671 210.74006414 C348.6922792 213.53122506 345.89826323 216.32815314 343.10354614 219.12438965 C338.26025225 223.96873287 333.41330635 228.80939717 328.56386948 233.64759064 C321.55238143 240.64283313 314.54641444 247.64358364 307.541788 254.64569613 C296.17743713 266.00566842 284.80862595 277.36116605 273.43701172 288.71386719 C262.38974886 299.74277548 251.34458595 310.77377981 240.30224609 321.80761719 C239.62173655 322.48760129 238.941227 323.16758538 238.24009596 323.86817506 C234.8262346 327.27942636 231.41241455 330.690719 227.99861503 334.10203218 C199.67214407 362.40776555 171.33843492 390.70624472 143 419 C139.8569669 417.50306476 137.79364745 416.00187177 135.3828125 413.47265625 C134.7007373 412.76826416 134.01866211 412.06387207 133.31591797 411.33813477 C132.59291504 410.58717529 131.86991211 409.83621582 131.125 409.0625 C123.85513434 401.66622212 116.42126557 395.04233622 108 389 C107.44231934 388.59265625 106.88463867 388.1853125 106.31005859 387.765625 C78.33893789 367.51039924 46.85714952 356.19788757 13 351 C8.71 350.34 4.42 349.68 0 349 C0 233.83 0 118.66 0 0 Z " fill="#FBBE16" transform="translate(1961,1433)"/>
<path d="M0 0 C9.9 0.33 19.8 0.66 30 1 C30 117.82 30 234.64 30 355 C93.36 355 156.72 355 222 355 C222.33 364.9 222.66 374.8 223 385 C159.31 385 95.62 385 30 385 C30 500.17 30 615.34 30 734 C20.1 734 10.2 734 0 734 C0 618.83 0 503.66 0 385 C-101.97 385 -203.94 385 -309 385 C-308.67 375.1 -308.34 365.2 -308 355 C-206.36 355 -104.72 355 0 355 C0 237.85 0 120.7 0 0 Z " fill="#050405" transform="translate(1931,1048)"/>
</svg>
