<?xml version="1.0"?>
<svg xmlns="http://www.w3.org/2000/svg" xml:space="preserve" style="enable-background:new 0 0 512 512" viewBox="0 0 512 512" height="100px" width="100px"><path d="M283.695 269.759H93.422c-7.598 0-13.759-6.16-13.759-13.759s6.161-13.759 13.759-13.759h190.272c7.598 0 13.759 6.16 13.759 13.759s-6.16 13.759-13.758 13.759z" style="fill:#ffc61b"/><path d="M108.102 310.468 13.759 256l94.343-54.469z" style="fill:#fee187"/><path d="M108.1 324.228c-2.376 0-4.751-.614-6.88-1.844L6.88 267.916a13.76 13.76 0 0 1 0-23.832l94.341-54.468a13.757 13.757 0 0 1 20.639 11.916v108.937a13.76 13.76 0 0 1-13.76 13.759zM41.278 256l53.063 30.637v-61.273L41.278 256zM318.791 449.21c-39.331 0-77.184-11.713-109.465-33.875-32.183-22.093-56.646-53.056-70.745-89.54a13.757 13.757 0 0 1 12.835-18.718h62.837c7.598 0 13.759 6.16 13.759 13.759s-6.161 13.759-13.759 13.759h-41.431c28.58 53.51 83.887 87.097 145.969 87.097 91.361 0 165.69-74.329 165.69-165.691S410.153 90.309 318.791 90.309c-62.082 0-117.389 33.588-145.969 87.097h34.047c16.749-23.777 40.858-41.779 68.637-51.088a135.936 135.936 0 0 1 43.284-7.074c75.408 0 136.757 61.349 136.757 136.757S394.198 392.758 318.79 392.758a135.964 135.964 0 0 1-43.279-7.072c-7.206-2.415-11.09-10.212-8.675-17.418 2.415-7.206 10.209-11.089 17.418-8.675a108.475 108.475 0 0 0 34.536 5.647c60.233 0 109.238-49.004 109.238-109.238S379.024 146.764 318.79 146.764c-11.738 0-23.359 1.9-34.54 5.647-24.196 8.11-44.906 24.453-58.312 46.019a13.76 13.76 0 0 1-11.686 6.496h-62.838a13.76 13.76 0 0 1-12.835-18.718c14.099-36.484 38.562-67.447 70.745-89.54C241.607 74.505 279.46 62.79 318.791 62.79 425.327 62.79 512 149.464 512 256s-86.673 193.21-193.209 193.21z" style="fill:#ffc61b"/></svg>
